<svg xmlns="http://www.w3.org/2000/svg" viewBox="0 0 1200 630">
  <defs>
    <linearGradient id="bg" x1="0" y1="0" x2="1" y2="1">
      <stop offset="0" stop-color="#0f172a"/>
      <stop offset="1" stop-color="#1e1b4b"/>
    </linearGradient>
    <linearGradient id="acc" x1="0" y1="0" x2="1" y2="1">
      <stop offset="0" stop-color="#7c3aed"/>
      <stop offset="1" stop-color="#06b6d4"/>
    </linearGradient>
  </defs>
  <rect width="1200" height="630" fill="url(#bg)"/>
  <g transform="translate(120,140)">
    <rect width="350" height="350" rx="24" fill="rgba(255,255,255,0.04)" stroke="rgba(255,255,255,0.08)"/>
    <g font-family="system-ui, sans-serif" font-weight="700" font-size="48" fill="#fff" text-anchor="middle">
      <rect x="20"  y="20"  width="75" height="75" rx="10" fill="url(#acc)"/><text x="57"  y="72">1</text>
      <rect x="105" y="20"  width="75" height="75" rx="10" fill="url(#acc)"/><text x="142" y="72">2</text>
      <rect x="190" y="20"  width="75" height="75" rx="10" fill="url(#acc)"/><text x="227" y="72">3</text>
      <rect x="20"  y="105" width="75" height="75" rx="10" fill="url(#acc)"/><text x="57"  y="157">4</text>
      <rect x="105" y="105" width="75" height="75" rx="10" fill="url(#acc)"/><text x="142" y="157">5</text>
      <rect x="190" y="105" width="75" height="75" rx="10" fill="url(#acc)"/><text x="227" y="157">6</text>
      <rect x="20"  y="190" width="75" height="75" rx="10" fill="url(#acc)"/><text x="57"  y="242">7</text>
      <rect x="105" y="190" width="75" height="75" rx="10" fill="url(#acc)"/><text x="142" y="242">8</text>
    </g>
  </g>
  <g transform="translate(560,200)" font-family="system-ui, sans-serif" fill="#fff">
    <text font-size="110" font-weight="800">Zentile</text>
    <text y="80" font-size="34" fill="#a5b4fc">The Modern 15 Puzzle</text>
    <text y="160" font-size="26" fill="#cbd5e1">3×3 · 4×4 · 5×5 · 6×6</text>
    <text y="200" font-size="22" fill="#94a3b8">Smooth · Responsive · Touch &amp; Mouse</text>
  </g>
</svg>
